<svg width="48" height="48" viewBox="0 0 48 48" fill="none" xmlns="http://www.w3.org/2000/svg">
    <path
        d="M19.6701 6.01465H15.9789C15.8248 6.01465 15.6778 6.14702 15.595 6.36078L11.836 16.0774C11.8034 16.1615 11.7822 16.2536 11.7734 16.3502H16.6525L20.1597 7.28378L19.6692 6.01554L19.6701 6.01465Z"
        fill="#5C616E" />
    <path
        d="M16.6545 16.5498H11.7754C11.7842 16.6455 11.8053 16.7385 11.8379 16.8226L15.5969 26.5383C15.6797 26.7521 15.8259 26.8845 15.9808 26.8845H19.6721L20.1625 25.6162L16.6553 16.5498H16.6545Z"
        fill="#5C616E" />
    <path
        d="M23.8785 6.36078C23.7957 6.14702 23.6496 6.01465 23.4946 6.01465H19.8809L20.2657 7.00831L20.3185 7.14515L20.3713 7.28289L23.4233 15.1714L25.3552 10.178L23.8785 6.36078Z"
        fill="#5C616E" />
    <path
        d="M23.4242 18.2258L25.1632 22.7219L23.7121 26.4729C23.6601 26.6089 23.5703 26.7037 23.4955 26.7037H20.1441L23.4233 18.2258M23.4233 17.7285L19.8809 26.8853H23.4946C23.6487 26.8853 23.7957 26.7529 23.8785 26.5391L25.3552 22.7219L23.4233 17.7285Z"
        fill="#5C616E" />
    <path
        d="M29.9385 6.19621L30.3586 7.28289L27.3313 15.1088H23.8522L27.2106 6.42696C27.2626 6.29101 27.3524 6.19621 27.4272 6.19621H29.9377M30.0601 6.01465H27.4272C27.2731 6.01465 27.1261 6.14702 27.0442 6.36078L23.5898 15.2903H27.4528L30.5505 7.28289L30.0601 6.01465Z"
        fill="#5C616E" />
    <path
        d="M27.5005 17.7283L27.4547 17.6094H23.5918L25.4638 22.4471L25.5167 22.584L25.5695 22.7208L27.0462 26.538C27.1289 26.7518 27.2751 26.8842 27.4292 26.8842H30.062L30.5525 25.6159L27.5005 17.7274V17.7283Z"
        fill="#5C616E" />
    <path
        d="M30.7111 25.754L30.6582 25.8908L30.2734 26.8845H34.9456C35.0997 26.8845 35.2467 26.7521 35.3295 26.5383L39.0876 16.8226C39.1202 16.7385 39.1414 16.6455 39.1502 16.5498H34.2711L30.7639 25.6162L30.7111 25.7531V25.754Z"
        fill="#5C616E" />
    <path
        d="M31.0421 6.01497H30.2734L30.6582 7.00864L30.7111 7.14548L30.7639 7.28232L34.2711 16.3487H39.1502C39.1414 16.253 39.1202 16.16 39.0876 16.0759L35.3295 6.35931C35.2467 6.14555 35.0997 6.01318 34.9456 6.01318H31.0421V6.01497Z"
        fill="#5C616E" />
</svg>