<svg width="102" height="33" viewBox="0 0 102 33" fill="none" xmlns="http://www.w3.org/2000/svg">
    <path fill-rule="evenodd" clip-rule="evenodd"
        d="M20.946 32.2924L0 32.344L2.42922e-06 15.4487V5.9418V0H6.36806V6.87182V16.172L6.31712 21.7005L6.26617 26.7639H20.946V32.2924ZM42.727 32.3878H37.9382V29.9156C35.8665 31.7412 33.5909 32.654 31.1117 32.654C28.7342 32.654 27.0361 31.9135 26.0172 30.4323C24.8625 28.8134 24.2851 25.9717 24.2851 21.9071V18.7554C24.2851 17.7565 24.3021 16.8093 24.336 15.9137V13.847C24.336 13.227 24.37 12.6586 24.4379 12.1419H29.3286C29.2267 16.5854 29.1758 19.1343 29.1758 19.7888C29.2097 21.3044 29.2437 22.5099 29.2777 23.4055C29.3116 24.3011 29.3626 24.8867 29.4305 25.1622C29.872 27.0567 30.9928 27.9006 32.7928 27.6939C34.5249 27.4873 35.8325 26.9534 36.7155 26.0922C36.9373 25.8759 37.3569 25.4298 37.7344 24.8005V12.0903L42.727 12.1419V32.3878ZM60.2264 32.2924C60.6679 32.1546 61.3472 31.8962 62.2642 31.5173L60.8377 27.1256C59.4113 27.8145 58.0528 28.1417 56.7622 28.1073C55.981 28.1073 55.2508 27.9695 54.5716 27.6939C53.9263 27.3839 53.3489 26.9706 52.8394 26.4539C52.364 25.9372 51.9734 25.3517 51.6677 24.6972C51.396 24.0083 51.2602 23.2677 51.2602 22.4755C51.2602 20.6154 51.7696 19.186 52.7885 18.1871C53.8074 17.1881 55.1999 16.6887 56.9659 16.6887C58.1547 16.6887 59.3603 16.9298 60.583 17.412L61.4491 12.6069C59.5132 12.0558 57.5773 11.8836 55.6414 12.0903C52.9583 12.4003 50.7847 13.5025 49.1205 15.397C47.5242 17.2915 46.6921 19.5821 46.6242 22.2688C46.6242 25.3 47.5412 27.8145 49.3752 29.8123C51.3451 31.9479 53.8923 32.9468 57.0169 32.809C57.6282 32.7746 58.1886 32.7057 58.6981 32.6024C59.2415 32.5335 59.7509 32.4301 60.2264 32.2924ZM71.3563 32.3957H66.4656V12.2453H71.3563V32.3957ZM101.284 15.2966C102.357 18.1039 101.906 22.7444 101.906 22.7444C101.906 22.7444 101.68 18.2757 100.55 16.2133C99.4201 14.1508 97.6689 14.5613 96.5391 16.1113C94.9389 18.3068 94.9524 20.3382 94.7289 22.3294C94.5151 24.234 94.3926 26.5829 95.2399 27.8433C96.0872 29.1037 97.7254 29.5536 99.4766 28.1432C101.228 26.7329 101.906 22.7444 101.906 22.7444C101.906 22.7444 102.019 25.3225 100.889 28.8149C100.101 31.2504 98.0079 32.5411 96.6183 32.7596C95.2288 32.9781 94.2919 32.7589 93.3069 32.07C92.2201 31.3122 91.6597 30.2272 91.6258 28.8149C89.8257 31.605 87.1087 33 83.4746 33C80.7916 33 78.7708 32.1733 77.4123 30.5199C76.1896 29.0388 75.5783 27.0582 75.5783 24.5781C75.5783 24.1304 75.5952 23.6998 75.6292 23.2865C75.6971 22.8387 75.7651 22.3737 75.833 21.8914C76.3085 19.1703 77.616 16.8797 79.7557 15.0196C82.0992 12.9529 84.7992 11.9712 87.8559 12.0745C89.7578 12.1434 91.2012 12.5396 92.1862 13.2629C93.0013 13.8829 93.4716 14.4123 94.0489 15.9967C95.0139 14.3227 95.7483 13.5779 97.4334 12.9641C98.4033 12.6109 100.211 12.4894 101.284 15.2966ZM91.1673 21.3231C91.1673 20.0831 90.7597 19.0497 89.9446 18.223C89.1635 17.3619 88.1276 16.9485 86.837 16.983C85.5124 17.0519 84.2558 17.603 83.0671 18.6364C81.8444 19.7386 81.0803 21.0131 80.7746 22.4598C80.6727 22.9764 80.6218 23.4931 80.6218 24.0098C80.6218 25.2843 80.9614 26.3004 81.6406 27.0582C82.3539 27.7816 83.3218 28.1432 84.5445 28.1432C86.2766 28.1432 87.8049 27.4543 89.1295 26.0765C90.488 24.6987 91.1673 23.1142 91.1673 21.3231ZM71.6305 5.83852C71.6305 6.52743 71.3418 7.14744 70.7645 7.69856C70.2211 8.24969 69.5758 8.52525 68.8286 8.52525C68.0814 8.55969 67.4361 8.30136 66.8927 7.75023C66.3832 7.19911 66.1285 6.56187 66.1285 5.83852C66.1285 5.08073 66.4002 4.42627 66.9436 3.87515C67.487 3.28958 68.1154 2.9968 68.8286 2.9968C69.5758 2.9968 70.2211 3.28958 70.7645 3.87515C71.3418 4.42627 71.6305 5.08073 71.6305 5.83852Z"
        fill="white" />
</svg>