<svg width="132" height="69" viewBox="0 0 132 69" fill="none" xmlns="http://www.w3.org/2000/svg">
<circle opacity="0.3" cx="88.1082" cy="42.9905" r="9.52619" fill="#E2A6FF"/>
<circle opacity="0.3" cx="95.1622" cy="49.6549" r="4.73842" fill="#EC7AFF"/>
<circle opacity="0.3" cx="21.5697" cy="46.742" r="21.5697" fill="#FF6826"/>
<circle opacity="0.3" cx="24.287" cy="45.2123" r="17.078" fill="#FB6A3C"/>
<circle opacity="0.3" cx="109.184" cy="16.5837" r="7.10762" fill="#8C87D2"/>
<circle opacity="0.3" cx="53.2077" cy="23.7902" r="5.33072" fill="#FFB74B"/>
<circle opacity="0.3" cx="58.1929" cy="14.7583" r="2.31985" fill="#FFC329"/>
<circle opacity="0.3" cx="119.255" cy="11.7473" r="9.825" stroke="#5757F0" stroke-width="3.84464"/>
<path fill-rule="evenodd" clip-rule="evenodd" d="M48.6068 42.5298L30.3047 42.5743L30.3047 28.0182V19.8276V14.7085H35.869V20.6289V28.6414L35.8244 33.4044L35.7799 37.7668H48.6068V42.5298ZM67.6385 42.6121H63.4542V40.4822C61.644 42.055 59.6557 42.8414 57.4893 42.8414C55.412 42.8414 53.9282 42.2034 53.0379 40.9273C52.0289 39.5325 51.5244 37.0842 51.5244 33.5825V30.8671C51.5244 30.0065 51.5393 29.1904 51.569 28.4188V26.6383C51.569 26.1041 51.5986 25.6144 51.658 25.1693H55.9313C55.8423 28.9975 55.7978 31.1936 55.7978 31.7574C55.8275 33.0631 55.8571 34.1018 55.8868 34.8734C55.9165 35.645 55.961 36.1495 56.0204 36.3869C56.4061 38.019 57.3855 38.7461 58.9583 38.5681C60.4718 38.39 61.6143 37.93 62.3859 37.1881C62.5797 37.0018 62.9463 36.6174 63.2762 36.0753V25.1248L67.6385 25.1693V42.6121ZM82.9291 42.5298C83.3149 42.4111 83.9084 42.1885 84.7097 41.8621L83.4633 38.0784C82.2169 38.6719 81.0298 38.9538 79.9022 38.9242C79.2196 38.9242 78.5816 38.8055 77.988 38.5681C77.4242 38.301 76.9197 37.9449 76.4746 37.4997C76.0591 37.0546 75.7178 36.5501 75.4507 35.9862C75.2133 35.3927 75.0946 34.7547 75.0946 34.0721C75.0946 32.4696 75.5398 31.2381 76.4301 30.3775C77.3203 29.5169 78.5371 29.0865 80.0802 29.0865C81.1189 29.0865 82.1724 29.2943 83.2407 29.7097L83.9975 25.5699C82.3059 25.0951 80.6144 24.9467 78.9228 25.1248C76.5784 25.3919 74.6792 26.3415 73.225 27.9737C71.8303 29.6059 71.1032 31.5793 71.0438 33.8941C71.0438 36.5056 71.8451 38.6719 73.4476 40.3931C75.1688 42.233 77.3945 43.0937 80.1247 42.975C80.6589 42.9453 81.1485 42.8859 81.5937 42.7969C82.0685 42.7375 82.5137 42.6485 82.9291 42.5298ZM92.6542 42.6188H88.3808V25.2583H92.6542V42.6188ZM118.804 27.8872C119.742 30.3058 119.347 34.3038 119.347 34.3038C119.347 34.3038 119.15 30.4539 118.163 28.6769C117.176 26.9 115.646 27.2537 114.658 28.5891C113.26 30.4806 113.272 32.2308 113.077 33.9463C112.89 35.5871 112.783 37.6108 113.523 38.6967C114.263 39.7826 115.695 40.1702 117.225 38.9551C118.755 37.7401 119.347 34.3038 119.347 34.3038C119.347 34.3038 119.446 36.5249 118.459 39.5338C117.771 41.6321 115.942 42.7441 114.728 42.9323C113.513 43.1206 112.695 42.9317 111.834 42.3382C110.884 41.6853 110.395 40.7505 110.365 39.5338C108.792 41.9376 106.418 43.1395 103.243 43.1395C100.898 43.1395 99.1328 42.4272 97.9457 41.0028C96.8774 39.7267 96.3432 38.0203 96.3432 35.8837C96.3432 35.4979 96.3581 35.1269 96.3877 34.7708C96.4471 34.385 96.5064 33.9844 96.5658 33.5689C96.9813 31.2245 98.1238 29.2511 99.9934 27.6486C102.041 25.868 104.4 25.0222 107.071 25.1113C108.733 25.1706 109.994 25.5119 110.855 26.1351C111.567 26.6692 111.978 27.1253 112.482 28.4904C113.326 27.0481 113.967 26.4065 115.44 25.8777C116.287 25.5734 117.867 25.4686 118.804 27.8872ZM109.965 33.0793C109.965 32.0109 109.608 31.1207 108.896 30.4084C108.214 29.6665 107.309 29.3104 106.181 29.3401C105.023 29.3994 103.925 29.8743 102.887 30.7645C101.818 31.7142 101.151 32.8122 100.884 34.0586C100.795 34.5037 100.75 34.9489 100.75 35.394C100.75 36.492 101.047 37.3675 101.64 38.0203C102.264 38.6435 103.109 38.9551 104.178 38.9551C105.691 38.9551 107.027 38.3616 108.184 37.1746C109.371 35.9875 109.965 34.6224 109.965 33.0793ZM92.8938 19.7386C92.8938 20.3322 92.6415 20.8663 92.137 21.3412C91.6622 21.816 91.0984 22.0534 90.4455 22.0534C89.7926 22.0831 89.2288 21.8605 88.754 21.3857C88.3088 20.9108 88.0863 20.3618 88.0863 19.7386C88.0863 19.0858 88.3237 18.5219 88.7985 18.0471C89.2733 17.5426 89.8223 17.2904 90.4455 17.2904C91.0984 17.2904 91.6622 17.5426 92.137 18.0471C92.6415 18.5219 92.8938 19.0858 92.8938 19.7386Z" fill="black"/>
<path d="M118.213 37.7096C119.003 35.7748 119.249 32.5763 118.805 30.4046L118.953 28.3809C119.842 30.9475 119.595 36.525 118.41 39.5359L118.213 37.7096Z" fill="black"/>
</svg>
