<svg width="24" height="24" viewBox="0 0 24 24" fill="none" xmlns="http://www.w3.org/2000/svg">
<path fill-rule="evenodd" clip-rule="evenodd" d="M4.54005 2H7.92005C9.33005 2 10.4601 3.15 10.4601 4.561V7.97C10.4601 9.39 9.33005 10.53 7.92005 10.53H4.54005C3.14005 10.53 2.00005 9.39 2.00005 7.97V4.561C2.00005 3.15 3.14005 2 4.54005 2ZM4.54 13.4697H7.92C9.33 13.4697 10.46 14.6107 10.46 16.0307V19.4397C10.46 20.8497 9.33 21.9997 7.92 21.9997H4.54C3.14 21.9997 2 20.8497 2 19.4397V16.0307C2 14.6107 3.14 13.4697 4.54 13.4697ZM19.4601 2.00001H16.0801C14.6701 2.00001 13.5401 3.15001 13.5401 4.56101V7.97001C13.5401 9.39001 14.6701 10.53 16.0801 10.53H19.4601C20.8601 10.53 22.0001 9.39001 22.0001 7.97001V4.56101C22.0001 3.15001 20.8601 2.00001 19.4601 2.00001ZM16.0801 13.4697H19.4601C20.8601 13.4697 22.0001 14.6107 22.0001 16.0307V19.4397C22.0001 20.8497 20.8601 21.9997 19.4601 21.9997H16.0801C14.6701 21.9997 13.5401 20.8497 13.5401 19.4397V16.0307C13.5401 14.6107 14.6701 13.4697 16.0801 13.4697Z" fill="#0500FF"/>
</svg>
