<svg width="28" height="28" viewBox="0 0 28 28" fill="none" xmlns="http://www.w3.org/2000/svg">
    <path
        d="M21.7289 9.61431V16.6507C21.7285 16.823 21.6599 16.9881 21.5381 17.1099C21.4163 17.2318 21.2512 17.3004 21.0789 17.3007H5.91953C5.74725 17.3004 5.58213 17.2318 5.46031 17.1099C5.33849 16.9881 5.26989 16.823 5.26953 16.6507V9.61431C5.26989 9.44203 5.33849 9.27691 5.46031 9.15509C5.58213 9.03327 5.74725 8.96467 5.91953 8.96431H21.0789C21.2512 8.96467 21.4163 9.03327 21.5381 9.15509C21.6599 9.27691 21.7285 9.44203 21.7289 9.61431ZM16.8272 13.1312C16.8259 12.3089 16.5193 11.5165 15.9668 10.9075C15.4143 10.2986 14.6553 9.91657 13.8371 9.83554C13.0188 9.7545 12.1997 9.98025 11.5385 10.469C10.8773 10.9577 10.4212 11.6746 10.2586 12.4806C10.096 13.2866 10.2386 14.1243 10.6587 14.8311C11.0788 15.5379 11.7464 16.0635 12.532 16.306C13.3177 16.5485 14.1654 16.4905 14.9108 16.1433C15.6561 15.7961 16.2459 15.1845 16.5658 14.427C16.7386 14.0174 16.8271 13.5771 16.8258 13.1325L16.8272 13.1312ZM16.5056 6.86241C16.3635 7.00439 16.1708 7.08413 15.9699 7.08413C15.769 7.08413 15.5763 7.00439 15.4342 6.86241L14.2573 5.68557V7.05399C14.2573 7.25505 14.1774 7.44788 14.0353 7.59005C13.8931 7.73223 13.7003 7.8121 13.4992 7.8121C13.2982 7.8121 13.1053 7.73223 12.9632 7.59005C12.821 7.44788 12.7411 7.25505 12.7411 7.05399V5.68557L11.5643 6.86241C11.422 7.0045 11.2291 7.08425 11.028 7.08412C10.827 7.08399 10.6342 7.004 10.4921 6.86173C10.35 6.71946 10.2703 6.52658 10.2704 6.32551C10.2705 6.12444 10.3505 5.93166 10.4928 5.78957L12.9628 3.31957C13.0332 3.24907 13.1168 3.19313 13.2089 3.15497C13.3009 3.11681 13.3996 3.09717 13.4992 3.09717C13.5989 3.09717 13.6975 3.11681 13.7896 3.15497C13.8816 3.19313 13.9652 3.24907 14.0356 3.31957L16.5056 5.7882C16.5761 5.85861 16.6321 5.94223 16.6702 6.03427C16.7084 6.12632 16.728 6.22498 16.728 6.32462C16.728 6.42427 16.7084 6.52293 16.6702 6.61497C16.6321 6.70702 16.5761 6.79064 16.5056 6.86105V6.86241ZM16.5056 20.4741L14.0356 22.9455C13.9652 23.016 13.8816 23.0719 13.7896 23.1101C13.6975 23.1482 13.5989 23.1679 13.4992 23.1679C13.3996 23.1679 13.3009 23.1482 13.2089 23.1101C13.1168 23.0719 13.0332 23.016 12.9628 22.9455L10.4928 20.4741C10.3588 20.3304 10.2858 20.1403 10.2892 19.9438C10.2926 19.7474 10.3722 19.5599 10.5111 19.4209C10.6501 19.282 10.8375 19.2024 11.034 19.199C11.2305 19.1956 11.4206 19.2686 11.5643 19.4026L12.7411 20.5795V19.211C12.7411 19.01 12.821 18.8172 12.9632 18.675C13.1053 18.5328 13.2982 18.4529 13.4992 18.4529C13.7003 18.4529 13.8931 18.5328 14.0353 18.675C14.1774 18.8172 14.2573 19.01 14.2573 19.211V20.5795L15.4342 19.4026C15.5036 19.3282 15.5873 19.2685 15.6803 19.2271C15.7732 19.1857 15.8736 19.1635 15.9754 19.1617C16.0771 19.1599 16.1782 19.1787 16.2726 19.2168C16.3669 19.2549 16.4526 19.3117 16.5246 19.3836C16.5966 19.4556 16.6533 19.5413 16.6914 19.6357C16.7296 19.7301 16.7483 19.8311 16.7465 19.9329C16.7448 20.0347 16.7225 20.135 16.6811 20.228C16.6397 20.321 16.5801 20.4047 16.5056 20.4741ZM15.0688 14.0028C15.068 14.2017 15.015 14.3968 14.9151 14.5688C14.8152 14.7407 14.6719 14.8834 14.4995 14.9826C14.3259 15.093 14.1348 15.1731 13.9344 15.2194V15.5834C13.9282 15.694 13.8798 15.7981 13.7993 15.8742C13.7187 15.9504 13.6121 15.9928 13.5013 15.9928C13.3904 15.9928 13.2838 15.9504 13.2033 15.8742C13.1227 15.7981 13.0744 15.694 13.0682 15.5834V15.2248C12.9425 15.1985 12.8197 15.16 12.7014 15.1099C12.5095 15.0306 12.3396 14.9062 12.2061 14.7473C12.1344 14.6599 12.0996 14.548 12.1092 14.4353C12.1188 14.3227 12.1719 14.2183 12.2574 14.1443C12.3428 14.0702 12.4537 14.0325 12.5666 14.0391C12.6794 14.0456 12.7852 14.096 12.8615 14.1794C12.9046 14.2335 12.96 14.2766 13.023 14.3053C13.0943 14.3364 13.1686 14.3602 13.2447 14.3764C13.3242 14.3921 13.4046 14.4022 13.4855 14.4065C13.677 14.407 13.8649 14.3549 14.0288 14.256C14.2026 14.1438 14.2026 14.048 14.2026 14.0028C14.2018 13.9324 14.1761 13.8646 14.1301 13.8113C14.0785 13.7531 14.0174 13.704 13.9494 13.6662C13.8788 13.6302 13.8038 13.6035 13.7264 13.5868C13.6544 13.5714 13.581 13.5636 13.5074 13.5636C13.3823 13.5644 13.2574 13.5548 13.1338 13.5348C12.9664 13.5071 12.8041 13.4545 12.6522 13.3788C12.4749 13.2901 12.3186 13.1646 12.1937 13.0107C12.0211 12.8019 11.9254 12.54 11.9228 12.269C11.9268 12.0634 11.9836 11.8622 12.0879 11.6848C12.1921 11.5075 12.3403 11.3599 12.5181 11.2564C12.6876 11.1511 12.8735 11.0748 13.0682 11.0306V10.6817C13.0744 10.571 13.1227 10.4669 13.2033 10.3908C13.2838 10.3147 13.3904 10.2722 13.5013 10.2722C13.6121 10.2722 13.7187 10.3147 13.7993 10.3908C13.8798 10.4669 13.9282 10.571 13.9344 10.6817V11.0429C14.0628 11.0743 14.1879 11.1178 14.308 11.1729C14.4697 11.2456 14.617 11.3466 14.7431 11.4713C14.8246 11.5526 14.8704 11.6629 14.8706 11.778C14.8707 11.8931 14.8251 12.0035 14.7438 12.085C14.6625 12.1665 14.5522 12.2123 14.4371 12.2124C14.322 12.2126 14.2115 12.167 14.1301 12.0857C14.0784 12.0345 14.0182 11.9928 13.9522 11.9625C13.8788 11.9285 13.8023 11.9019 13.7236 11.8832L13.7004 11.8777C13.6389 11.862 13.5762 11.8515 13.5129 11.8462C13.326 11.8455 13.1422 11.8946 12.9806 11.9885C12.9269 12.0144 12.881 12.054 12.8473 12.1032C12.8137 12.1524 12.7936 12.2096 12.789 12.269C12.793 12.341 12.8204 12.4097 12.867 12.4647C12.9143 12.5222 12.973 12.5693 13.0394 12.6029C13.1142 12.6399 13.1939 12.6657 13.2762 12.6796C13.3526 12.692 13.43 12.6979 13.5074 12.6974C13.6431 12.6967 13.7784 12.7105 13.9111 12.7384C14.0649 12.7721 14.2135 12.8259 14.3531 12.8985C14.5156 12.986 14.6611 13.1019 14.7828 13.2406C14.9675 13.4516 15.0696 13.7224 15.0702 14.0028H15.0688Z"
        fill="#0500FF" />
</svg>