<svg width="51" height="50" viewBox="0 0 51 50" fill="none" xmlns="http://www.w3.org/2000/svg">
<circle cx="26" cy="25" r="25" fill="#CACACA" fill-opacity="0.25"/>
<path d="M19.6701 13.0146H15.9789C15.8248 13.0146 15.6778 13.147 15.595 13.3608L11.836 23.0774C11.8034 23.1615 11.7822 23.2536 11.7734 23.3502H16.6525L20.1597 14.2838L19.6692 13.0155L19.6701 13.0146Z" fill="#023EDC"/>
<path d="M16.6545 23.5498H11.7754C11.7842 23.6455 11.8053 23.7385 11.8379 23.8226L15.5969 33.5383C15.6797 33.7521 15.8259 33.8845 15.9808 33.8845H19.6721L20.1625 32.6162L16.6553 23.5498H16.6545Z" fill="#023EDC"/>
<path d="M23.8785 13.3608C23.7957 13.147 23.6496 13.0146 23.4946 13.0146H19.8809L20.2657 14.0083L20.3185 14.1452L20.3713 14.2829L23.4233 22.1714L25.3552 17.178L23.8785 13.3608Z" fill="#023EDC"/>
<path d="M23.4242 25.2258L25.1632 29.7219L23.7121 33.4729C23.6601 33.6089 23.5703 33.7037 23.4955 33.7037H20.1441L23.4233 25.2258M23.4233 24.7285L19.8809 33.8853H23.4946C23.6487 33.8853 23.7957 33.7529 23.8785 33.5391L25.3552 29.7219L23.4233 24.7285Z" fill="#023EDC"/>
<path d="M29.9385 13.1962L30.3586 14.2829L27.3313 22.1088H23.8522L27.2106 13.427C27.2626 13.291 27.3524 13.1962 27.4272 13.1962H29.9377M30.0601 13.0146H27.4272C27.2731 13.0146 27.1261 13.147 27.0442 13.3608L23.5898 22.2903H27.4528L30.5505 14.2829L30.0601 13.0146Z" fill="#023EDC"/>
<path d="M27.5005 24.7286L27.4547 24.6096H23.5918L25.4638 29.4474L25.5167 29.5842L25.5695 29.721L27.0462 33.5383C27.1289 33.7521 27.2751 33.8844 27.4292 33.8844H30.062L30.5525 32.6162L27.5005 24.7277V24.7286Z" fill="#023EDC"/>
<path d="M30.7111 32.754L30.6582 32.8908L30.2734 33.8845H34.9456C35.0997 33.8845 35.2467 33.7521 35.3295 33.5383L39.0876 23.8226C39.1202 23.7385 39.1414 23.6455 39.1502 23.5498H34.2711L30.7639 32.6162L30.7111 32.7531V32.754Z" fill="#023EDC"/>
<path d="M31.0421 13.0147H30.2734L30.6582 14.0084L30.7111 14.1452L30.7639 14.2821L34.2711 23.3485H39.1502C39.1414 23.2528 39.1202 23.1598 39.0876 23.0757L35.3295 13.3591C35.2467 13.1453 35.0997 13.0129 34.9456 13.0129H31.0421V13.0147Z" fill="#023EDC"/>
</svg>
