<svg width="50" height="50" viewBox="0 0 50 50" fill="none" xmlns="http://www.w3.org/2000/svg">
<circle cx="25" cy="25" r="25" fill="#CACACA" fill-opacity="0.25"/>
<path d="M24.989 14C18.917 14 14 18.928 14 25C14 31.072 18.917 36 24.989 36C31.072 36 36 31.072 36 25C36 18.928 31.072 14 24.989 14ZM25 33.8C20.138 33.8 16.2 29.862 16.2 25C16.2 20.138 20.138 16.2 25 16.2C29.862 16.2 33.8 20.138 33.8 25C33.8 29.862 29.862 33.8 25 33.8ZM25.55 19.5H23.9V26.1L29.675 29.565L30.5 28.212L25.55 25.275V19.5Z" fill="black"/>
</svg>
